<svg width="428" height="926" viewBox="0 0 428 926" fill="none" xmlns="http://www.w3.org/2000/svg">
<g clip-path="url(#clip0_1_771)">
<rect width="428" height="926" fill="#171B36"/>
<path d="M640.341 532C640.341 689.953 512.295 818 354.341 818C196.388 818 335.841 689.953 335.841 532C335.841 374.047 196.388 246 354.341 246C512.295 246 640.341 374.047 640.341 532Z" fill="#09E8B2"/>
<path d="M423.244 -57.033C538.29 51.1965 342.887 -0.0741553 234.658 114.972C126.428 230.018 146.356 467.816 31.3097 359.586C-83.7366 251.357 -89.2626 70.356 18.967 -44.6903C127.197 -159.737 308.197 -165.263 423.244 -57.033Z" fill="#DE7773"/>
<path d="M156.527 641.479C220.181 786.038 351.821 867.983 207.262 931.638C62.7032 995.292 -106.088 929.707 -169.743 785.148C-233.397 640.588 -167.812 471.798 -23.2526 408.143C121.307 344.488 92.8716 496.92 156.527 641.479Z" fill="#F6C85D"/>
</g>
<defs>
<clipPath id="clip0_1_771">
<rect width="428" height="926" fill="white"/>
</clipPath>
</defs>
</svg>
